<svg xmlns="http://www.w3.org/2000/svg" width="381" height="307" viewBox="0 0 381 307">
<g>
<path d="M 72.08 292.75 C71.86,270.58 68.77,242.72 63.93,219.15 C57.85,189.54 45.42,149.67 34.27,124.01 L 32.32 119.52 L 25.41 119.43 C11.09,119.23 1.61,109.93 1.53,96.00 C1.49,87.83 4.78,81.66 11.58,77.15 C26.68,67.16 46.07,76.66 47.72,94.87 C48.20,100.15 47.91,101.65 45.50,106.41 C43.98,109.43 42.11,112.13 41.36,112.41 C38.72,113.43 40.08,116.30 48.50,127.51 C52.92,133.39 58.32,140.19 69.96,154.54 C90.47,179.82 119.29,208.97 128.13,213.38 C132.83,215.72 133.47,215.81 136.03,214.48 C148.39,208.09 166.36,162.16 176.90,110.00 C181.61,86.69 186.38,56.43 185.56,55.10 C185.31,54.69 183.21,53.73 180.90,52.97 C174.79,50.95 167.70,43.62 165.52,37.07 C162.04,26.57 164.92,14.79 172.63,8.02 C183.94,-1.91 199.59,-1.42 210.10,9.20 C223.25,22.49 219.33,44.27 202.36,52.21 C198.86,53.85 196.00,55.52 196.00,55.92 C196.00,57.41 198.99,77.79 200.49,86.50 C210.68,145.80 227.28,195.84 241.86,211.25 C247.38,217.09 250.97,216.51 261.00,208.14 C277.13,194.68 312.23,156.10 327.50,135.03 C328.60,133.51 332.29,128.54 335.70,123.99 L 341.90 115.72 L 338.51 111.58 C334.20,106.32 332.93,102.94 332.87,96.58 C332.79,87.21 338.89,78.03 347.65,74.37 C352.26,72.45 360.06,72.66 365.17,74.87 C381.31,81.83 384.07,103.91 370.15,114.67 C365.69,118.12 356.92,120.52 352.68,119.46 C349.57,118.67 348.52,120.51 341.22,139.50 C327.24,175.84 316.78,216.77 312.60,251.50 C311.16,263.43 309.00,294.02 309.00,302.46 L 309.00 306.00 L 190.60 306.00 L 72.21 306.00 L 72.08 292.75 Z" fill="rgba(0,0,0,1)"/>
</g>
</svg>